{
  "accessors": [
    {
      "bufferView": 0,
      "componentType": 5126,
      "count": 2234,
      "max": [
        -38.543067932128906,
        55.58587646484375,
        13.563129425048828
      ],
      "min": [
        -59.63290023803711,
        -47.995601654052734,
        -13.56309986114502
      ],
      "type": "VEC3"
    },
    {
      "bufferView": 1,
      "componentType": 5125,
      "count": 5902,
      "type": "SCALAR"
    },
    {
      "bufferView": 2,
      "componentType": 5126,
      "count": 2234,
      "type": "VEC3"
    },
    {
      "bufferView": 3,
      "componentType": 5126,
      "count": 2234,
      "type": "VEC4"
    },
    {
      "bufferView": 4,
      "componentType": 5126,
      "count": 2234,
      "type": "VEC2"
    },
    {
      "bufferView": 5,
      "componentType": 5126,
      "count": 2234,
      "max": [
        59.633331298828125,
        55.58587646484375,
        13.563129425048828
      ],
      "min": [
        38.54349899291992,
        -47.995601654052734,
        -13.56309986114502
      ],
      "type": "VEC3"
    },
    {
      "bufferView": 6,
      "componentType": 5125,
      "count": 5902,
      "type": "SCALAR"
    },
    {
      "bufferView": 7,
      "componentType": 5126,
      "count": 2234,
      "type": "VEC3"
    },
    {
      "bufferView": 8,
      "componentType": 5126,
      "count": 2234,
      "type": "VEC4"
    },
    {
      "bufferView": 9,
      "componentType": 5126,
      "count": 2234,
      "type": "VEC2"
    },
    {
      "bufferView": 10,
      "componentType": 5126,
      "count": 6541,
      "max": [
        45.95625305175781,
        64.58554077148438,
        45.13692855834961
      ],
      "min": [
        -45.956298828125,
        -65.0,
        -45.137001037597656
      ],
      "type": "VEC3"
    },
    {
      "bufferView": 11,
      "componentType": 5125,
      "count": 17325,
      "type": "SCALAR"
    },
    {
      "bufferView": 12,
      "componentType": 5126,
      "count": 6541,
      "type": "VEC3"
    },
    {
      "bufferView": 13,
      "componentType": 5126,
      "count": 6541,
      "type": "VEC4"
    },
    {
      "bufferView": 14,
      "componentType": 5126,
      "count": 6541,
      "type": "VEC2"
    },
    {
      "bufferView": 15,
      "componentType": 5126,
      "count": 3301,
      "max": [
        47.85630416870117,
        130.57875061035156,
        47.85630416870117
      ],
      "min": [
        -47.856300354003906,
        63.796600341796875,
        -47.856300354003906
      ],
      "type": "VEC3"
    },
    {
      "bufferView": 16,
      "componentType": 5125,
      "count": 8270,
      "type": "SCALAR"
    },
    {
      "bufferView": 17,
      "componentType": 5126,
      "count": 3301,
      "type": "VEC3"
    },
    {
      "bufferView": 18,
      "componentType": 5126,
      "count": 3301,
      "type": "VEC4"
    },
    {
      "bufferView": 19,
      "componentType": 5126,
      "count": 3301,
      "type": "VEC2"
    },
    {
      "bufferView": 20,
      "componentType": 5126,
      "count": 3301,
      "max": [
        32.93144226074219,
        121.36831665039063,
        48.517642974853516
      ],
      "min": [
        -32.93159866333008,
        75.28399658203125,
        15.781200408935547
      ],
      "type": "VEC3"
    },
    {
      "bufferView": 21,
      "componentType": 5125,
      "count": 8270,
      "type": "SCALAR"
    },
    {
      "bufferView": 22,
      "componentType": 5126,
      "count": 3301,
      "type": "VEC3"
    },
    {
      "bufferView": 23,
      "componentType": 5126,
      "count": 3301,
      "type": "VEC4"
    },
    {
      "bufferView": 24,
      "componentType": 5126,
      "count": 3301,
      "type": "VEC2"
    },
    {
      "bufferView": 25,
      "componentType": 5126,
      "count": 1635,
      "max": [
        20.299123764038086,
        107.83601379394531,
        46.790626525878906
      ],
      "min": [
        6.767000198364258,
        98.2510986328125,
        40.51169967651367
      ],
      "type": "VEC3"
    },
    {
      "bufferView": 26,
      "componentType": 5125,
      "count": 4325,
      "type": "SCALAR"
    },
    {
      "bufferView": 27,
      "componentType": 5126,
      "count": 1635,
      "type": "VEC3"
    },
    {
      "bufferView": 28,
      "componentType": 5126,
      "count": 1635,
      "type": "VEC4"
    },
    {
      "bufferView": 29,
      "componentType": 5126,
      "count": 1635,
      "type": "VEC2"
    },
    {
      "bufferView": 30,
      "componentType": 5126,
      "count": 1635,
      "max": [
        -6.739512920379639,
        107.83601379394531,
        46.70164108276367
      ],
      "min": [
        -20.3257999420166,
        98.2510986328125,
        40.60060119628906
      ],
      "type": "VEC3"
    },
    {
      "bufferView": 31,
      "componentType": 5125,
      "count": 4325,
      "type": "SCALAR"
    },
    {
      "bufferView": 32,
      "componentType": 5126,
      "count": 1635,
      "type": "VEC3"
    },
    {
      "bufferView": 33,
      "componentType": 5126,
      "count": 1635,
      "type": "VEC4"
    },
    {
      "bufferView": 34,
      "componentType": 5126,
      "count": 1635,
      "type": "VEC2"
    }
  ],
  "asset": {
    "version": "2.0"
  },
  "bufferViews": [
    {
      "buffer": 0,
      "byteLength": 26808,
      "target": 34962
    },
    {
      "buffer": 1,
      "byteLength": 23608,
      "target": 34963
    },
    {
      "buffer": 2,
      "byteLength": 26808,
      "target": 34962
    },
    {
      "buffer": 3,
      "byteLength": 35744,
      "target": 34962
    },
    {
      "buffer": 4,
      "byteLength": 17872,
      "target": 34962
    },
    {
      "buffer": 5,
      "byteLength": 26808,
      "target": 34962
    },
    {
      "buffer": 6,
      "byteLength": 23608,
      "target": 34963
    },
    {
      "buffer": 7,
      "byteLength": 26808,
      "target": 34962
    },
    {
      "buffer": 8,
      "byteLength": 35744,
      "target": 34962
    },
    {
      "buffer": 9,
      "byteLength": 17872,
      "target": 34962
    },
    {
      "buffer": 10,
      "byteLength": 78492,
      "target": 34962
    },
    {
      "buffer": 11,
      "byteLength": 69300,
      "target": 34963
    },
    {
      "buffer": 12,
      "byteLength": 78492,
      "target": 34962
    },
    {
      "buffer": 13,
      "byteLength": 104656,
      "target": 34962
    },
    {
      "buffer": 14,
      "byteLength": 52328,
      "target": 34962
    },
    {
      "buffer": 15,
      "byteLength": 39612,
      "target": 34962
    },
    {
      "buffer": 16,
      "byteLength": 33080,
      "target": 34963
    },
    {
      "buffer": 17,
      "byteLength": 39612,
      "target": 34962
    },
    {
      "buffer": 18,
      "byteLength": 52816,
      "target": 34962
    },
    {
      "buffer": 19,
      "byteLength": 26408,
      "target": 34962
    },
    {
      "buffer": 20,
      "byteLength": 39612,
      "target": 34962
    },
    {
      "buffer": 21,
      "byteLength": 33080,
      "target": 34963
    },
    {
      "buffer": 22,
      "byteLength": 39612,
      "target": 34962
    },
    {
      "buffer": 23,
      "byteLength": 52816,
      "target": 34962
    },
    {
      "buffer": 24,
      "byteLength": 26408,
      "target": 34962
    },
    {
      "buffer": 25,
      "byteLength": 19620,
      "target": 34962
    },
    {
      "buffer": 26,
      "byteLength": 17300,
      "target": 34963
    },
    {
      "buffer": 27,
      "byteLength": 19620,
      "target": 34962
    },
    {
      "buffer": 28,
      "byteLength": 26160,
      "target": 34962
    },
    {
      "buffer": 29,
      "byteLength": 13080,
      "target": 34962
    },
    {
      "buffer": 30,
      "byteLength": 19620,
      "target": 34962
    },
    {
      "buffer": 31,
      "byteLength": 17300,
      "target": 34963
    },
    {
      "buffer": 32,
      "byteLength": 19620,
      "target": 34962
    },
    {
      "buffer": 33,
      "byteLength": 26160,
      "target": 34962
    },
    {
      "buffer": 34,
      "byteLength": 13080,
      "target": 34962
    }
  ],
  "buffers": [
    {
      "byteLength": 26808,
      "uri": "data:application/octet-stream;base64,"
    },
    {
      "byteLength": 23608,
      "uri": "data:application/octet-stream;base64,"
    },
    {
      "byteLength": 26808,
      "uri": "data:application/octet-stream;base64,"
    },
    {
      "byteLength": 35744,
      "uri": "data:application/octet-stream;base64,"
    },
    {
      "byteLength": 17872,
      "uri": "data:application/octet-stream;base64,"
    },
    {
      "byteLength": 26808,
      "uri": "data:application/octet-stream;base64,"
    },
    {
      "byteLength": 23608,
      "uri": "data:application/octet-stream;base64,"
    },
    {
      "byteLength": 26808,
      "uri": "data:application/octet-stream;base64,"
    },
    {
      "byteLength": 35744,
      "uri": "data:application/octet-stream;base64,"
    },
    {
      "byteLength": 17872,
      "uri": "data:application/octet-stream;base64,"
    },
    {
      "byteLength": 78492,
      "uri": "data:application/octet-stream;base64,"
    },
    {
      "byteLength": 69300,
      "uri": "data:application/octet-stream;base64,"
    },
    {
      "byteLength": 78492,
      "uri": "data:application/octet-stream;base64,"
    },
    {
      "byteLength": 104656,
      "uri": "data:application/octet-stream;base64,"
    },
    {
      "byteLength": 52328,
      "uri": "data:application/octet-stream;base64,"
    },
    {
      "byteLength": 39612,
      "uri": "data:application/octet-stream;base64,"
    },
    {
      "byteLength": 33080,
      "uri": "data:application/octet-stream;base64,"
    },
    {
      "byteLength": 39612,
      "uri": "data:application/octet-stream;base64,"
    },
    {
      "byteLength": 52816,
      "uri": "data:application/octet-stream;base64,"
    },
    {
      "byteLength": 26408,
      "uri": "data:application/octet-stream;base64,"
    },
    {
      "byteLength": 39612,
      "uri": "data:application/octet-stream;base64,"
    },
    {
      "byteLength": 33080,
      "uri": "data:application/octet-stream;base64,"
    },
    {
      "byteLength": 39612,
      "uri": "data:application/octet-stream;base64,"
    },
    {
      "byteLength": 52816,
      "uri": "data:application/octet-stream;base64,"
    },
    {
      "byteLength": 26408,
      "uri": "data:application/octet-stream;base64,"
    },
    {
      "byteLength": 19620,
      "uri": "data:application/octet-stream;base64,"
    },
    {
      "byteLength": 17300,
      "uri": "data:application/octet-stream;base64,"
    },
    {
      "byteLength": 19620,
      "uri": "data:application/octet-stream;base64,"
    },
    {
      "byteLength": 26160,
      "uri": "data:application/octet-stream;base64,"
    },
    {
      "byteLength": 13080,
      "uri": "data:application/octet-stream;base64,"
    },
    {
      "byteLength": 19620,
      "uri": "data:application/octet-stream;base64,"
    },
    {
      "byteLength": 17300,
      "uri": "data:application/octet-stream;base64,"
    },
    {
      "byteLength": 19620,
      "uri": "data:application/octet-stream;base64,"
    },
    {
      "byteLength": 26160,
      "uri": "data:application/octet-stream;base64,"
    },
    {
      "byteLength": 13080,
      "uri": "data:application/octet-stream;base64,"
    }
  ],
  "materials": [
    {
      "doubleSided": true,
      "name": "Eve"
    },
    {
      "doubleSided": true,
      "name": "Mat.2",
      "pbrMetallicRoughness": {
        "baseColorFactor": [
          0.0,
          0.0,
          0.0,
          1.0
        ]
      }
    },
    {
      "doubleSided": true,
      "name": "Mat",
      "pbrMetallicRoughness": {
        "baseColorFactor": [
          0.0,
          0.43333300948143005,
          1.0,
          1.0
        ]
      }
    }
  ],
  "meshes": [
    {
      "primitives": [
        {
          "attributes": {
            "NORMAL": 2,
            "POSITION": 0,
            "TANGENT": 3,
            "TEXCOORD_0": 4
          },
          "indices": 1,
          "material": 0,
          "mode": 5
        }
      ]
    },
    {
      "primitives": [
        {
          "attributes": {
            "NORMAL": 7,
            "POSITION": 5,
            "TANGENT": 8,
            "TEXCOORD_0": 9
          },
          "indices": 6,
          "material": 0,
          "mode": 5
        }
      ]
    },
    {
      "primitives": [
        {
          "attributes": {
            "NORMAL": 12,
            "POSITION": 10,
            "TANGENT": 13,
            "TEXCOORD_0": 14
          },
          "indices": 11,
          "material": 0,
          "mode": 5
        }
      ]
    },
    {
      "primitives": [
        {
          "attributes": {
            "NORMAL": 17,
            "POSITION": 15,
            "TANGENT": 18,
            "TEXCOORD_0": 19
          },
          "indices": 16,
          "material": 0,
          "mode": 5
        }
      ]
    },
    {
      "primitives": [
        {
          "attributes": {
            "NORMAL": 22,
            "POSITION": 20,
            "TANGENT": 23,
            "TEXCOORD_0": 24
          },
          "indices": 21,
          "material": 1,
          "mode": 5
        }
      ]
    },
    {
      "primitives": [
        {
          "attributes": {
            "NORMAL": 27,
            "POSITION": 25,
            "TANGENT": 28,
            "TEXCOORD_0": 29
          },
          "indices": 26,
          "material": 2,
          "mode": 5
        }
      ]
    },
    {
      "primitives": [
        {
          "attributes": {
            "NORMAL": 32,
            "POSITION": 30,
            "TANGENT": 33,
            "TEXCOORD_0": 34
          },
          "indices": 31,
          "material": 2,
          "mode": 5
        }
      ]
    }
  ],
  "nodes": [
    {
      "mesh": 0,
      "name": "_gltfNode_0"
    },
    {
      "children": [
        0
      ],
      "name": "Right_Arm_1"
    },
    {
      "mesh": 1,
      "name": "_gltfNode_2"
    },
    {
      "children": [
        2
      ],
      "name": "Left_Arm_2"
    },
    {
      "mesh": 2,
      "name": "_gltfNode_4"
    },
    {
      "children": [
        4
      ],
      "name": "Body_3"
    },
    {
      "mesh": 3,
      "name": "_gltfNode_6"
    },
    {
      "children": [
        6
      ],
      "name": "Head_4"
    },
    {
      "mesh": 4,
      "name": "_gltfNode_8"
    },
    {
      "children": [
        8
      ],
      "name": "Face_5"
    },
    {
      "mesh": 5,
      "name": "_gltfNode_10"
    },
    {
      "children": [
        10
      ],
      "name": "Eye_6"
    },
    {
      "mesh": 6,
      "name": "_gltfNode_12"
    },
    {
      "children": [
        12
      ],
      "name": "Eye_1_7"
    },
    {
      "children": [
        1,
        3,
        5,
        7,
        9,
        11,
        13
      ],
      "name": "Eve Robot OBJ.obj_0"
    },
    {
      "children": [
        14
      ],
      "name": "GLTF_SceneRootNode",
      "rotation": [
        -1.9753748434203095e-22,
        0.0,
        0.0,
        1.0
      ],
      "scale": [
        1.0,
        1.0,
        1.0
      ],
      "translation": [
        0.0,
        0.0,
        0.0
      ]
    }
  ],
  "scene": 0,
  "scenes": [
    {
      "nodes": [
        15
      ]
    }
  ]
}
